<svg xmlns="http://www.w3.org/2000/svg" viewBox="0 0 800 450">
  <defs>
    <linearGradient id="guideGrad" x1="0%" y1="0%" x2="100%" y2="100%">
      <stop offset="0%" style="stop-color:#e8ebe4;stop-opacity:1" />
      <stop offset="100%" style="stop-color:#d3d9cc;stop-opacity:1" />
    </linearGradient>
  </defs>
  <rect width="800" height="450" fill="url(#guideGrad)"/>
  
  <!-- Document/guide illustration -->
  <rect x="280" y="60" width="240" height="300" rx="8" fill="white" stroke="#788a66" stroke-width="3"/>
  
  <!-- Lines of text -->
  <rect x="310" y="100" width="140" height="12" rx="2" fill="#788a66"/>
  <rect x="310" y="130" width="180" height="8" rx="2" fill="#b5c0a9"/>
  <rect x="310" y="150" width="160" height="8" rx="2" fill="#b5c0a9"/>
  <rect x="310" y="170" width="170" height="8" rx="2" fill="#b5c0a9"/>
  
  <!-- Checkbox items -->
  <rect x="310" y="200" width="16" height="16" rx="2" fill="none" stroke="#1F3A5F" stroke-width="2"/>
  <path d="M313 208 L318 213 L325 204" fill="none" stroke="#1F3A5F" stroke-width="2"/>
  <rect x="340" y="203" width="120" height="8" rx="2" fill="#d3d9cc"/>
  
  <rect x="310" y="230" width="16" height="16" rx="2" fill="none" stroke="#1F3A5F" stroke-width="2"/>
  <path d="M313 238 L318 243 L325 234" fill="none" stroke="#1F3A5F" stroke-width="2"/>
  <rect x="340" y="233" width="100" height="8" rx="2" fill="#d3d9cc"/>
  
  <rect x="310" y="260" width="16" height="16" rx="2" fill="none" stroke="#162B45" stroke-width="2"/>
  <rect x="340" y="263" width="130" height="8" rx="2" fill="#d3d9cc"/>
  
  <rect x="310" y="290" width="16" height="16" rx="2" fill="none" stroke="#162B45" stroke-width="2"/>
  <rect x="340" y="293" width="110" height="8" rx="2" fill="#d3d9cc"/>
  
  <!-- Pencil -->
  <g transform="rotate(-45, 580, 280)">
    <rect x="560" y="200" width="40" height="160" rx="4" fill="#1F3A5F"/>
    <polygon points="560,360 580,390 600,360" fill="#f4d03f"/>
    <rect x="560" y="200" width="40" height="30" fill="#788a66"/>
  </g>
  
  <text x="400" y="410" font-family="Arial, sans-serif" font-size="20" fill="#1F3A5F" text-anchor="middle">Guide Image</text>
</svg>
