<svg xmlns="http://www.w3.org/2000/svg" viewBox="0 0 800 600">
  <defs>
    <linearGradient id="catGrad" x1="0%" y1="0%" x2="100%" y2="100%">
      <stop offset="0%" style="stop-color:#d3d9cc;stop-opacity:1" />
      <stop offset="100%" style="stop-color:#b5c0a9;stop-opacity:1" />
    </linearGradient>
  </defs>
  <rect width="800" height="600" fill="url(#catGrad)"/>
  
  <!-- Shelving unit illustration -->
  <rect x="200" y="100" width="400" height="400" rx="4" fill="none" stroke="#788a66" stroke-width="4"/>
  <line x1="200" y1="200" x2="600" y2="200" stroke="#788a66" stroke-width="3"/>
  <line x1="200" y1="300" x2="600" y2="300" stroke="#788a66" stroke-width="3"/>
  <line x1="200" y1="400" x2="600" y2="400" stroke="#788a66" stroke-width="3"/>
  
  <!-- Items on shelves -->
  <rect x="230" y="120" width="60" height="70" rx="4" fill="#5e6d50" opacity="0.6"/>
  <rect x="310" y="140" width="50" height="50" rx="4" fill="#95a383" opacity="0.6"/>
  <rect x="380" y="130" width="70" height="60" rx="4" fill="#788a66" opacity="0.6"/>
  <circle cx="520" cy="160" r="30" fill="#5e6d50" opacity="0.5"/>
  
  <rect x="240" y="220" width="80" height="70" rx="4" fill="#95a383" opacity="0.6"/>
  <rect x="350" y="240" width="60" height="50" rx="4" fill="#5e6d50" opacity="0.6"/>
  <rect x="450" y="230" width="90" height="60" rx="4" fill="#788a66" opacity="0.6"/>
  
  <rect x="220" y="320" width="100" height="70" rx="4" fill="#788a66" opacity="0.6"/>
  <rect x="340" y="340" width="70" height="50" rx="4" fill="#95a383" opacity="0.6"/>
  <circle cx="500" cy="360" r="35" fill="#5e6d50" opacity="0.5"/>
  
  <text x="400" y="550" font-family="Arial, sans-serif" font-size="20" fill="#5e6d50" text-anchor="middle">Category Image</text>
</svg>
